:SAMPLES-PER-SECOND 30
:FULLY-SPECIFIED
:DEGREES
47
root  60.1573 39.5413 -29.7901 -127.644 -84.584 134.351
RightUpLeg  6.38541 -14.3014 -7.75174
RightLeg  18.969 3.33783 1.29751
RightFoot  -9.17158 -0.234399 8.9581
RightToes  -1.74624e-010 0 -3.6325e-017
Spine  6.15717 4.65379 10.7219
Spine1  5.58255 8.97921 -15.7701
HEad  -21.9958 -5.7772 -0.204585
LeftShoulder1  7.88083 -11.7256 -45.091
LeftArm  1.78575 40.0359 -22.4272
LeftForeArm  179.395 -58.1166 -164.797
LeftHand  -0.244104 0.0205437 5.32207
RightShoulder  6.04399 9.81041 39.2951
RightArm  9.32429 -12.8516 32.5051
RightForeArm  152.039 67.3673 154.445
RightHand  0.0322254 -9.44813 -2.27141
LeftUpLeg  -26.5522 12.2017 -10.0312
LeftLeg  30.9834 4.9732 3.57178
LeftFoot  -15.859 -0.17514 -6.84345
LeftToes  1.28235e-010 -1.10989e-010 2.53219e-011
48
root  58.7851 39.4667 -29.8347 -136.307 -83.9306 142.469
RightUpLeg  3.26054 -11.4191 -7.78172
RightLeg  27.9905 2.56881 1.2171
RightFoot  -3.75366 -0.718121 10.5705
RightToes  -1.74624e-010 0 -3.6325e-017
Spine  6.61933 4.96689 10.3463
Spine1  5.74772 9.38834 -15.911
HEad  -21.3718 -5.18312 0.506138
LeftShoulder1  8.10704 -12.0137 -45.5439
LeftArm  -2.00117 41.531 -26.3974
LeftForeArm  -179.3 -57.845 -165.056
LeftHand  -0.244104 0.0205437 5.32207
RightShoulder  6.1021 9.9524 39.2487
RightArm  11.1963 -14.4145 31.6654
RightForeArm  151.746 69.4932 151.657
RightHand  -0.0106475 -8.69317 -1.24343
LeftUpLeg  -22.7872 11.9626 -10.3624
LeftLeg  26.3777 4.08052 2.52408
LeftFoot  -14.9867 -0.101219 -5.88041
LeftToes  1.28235e-010 -1.10989e-010 2.53219e-011
49
root  57.4336 39.0538 -29.8698 -144.039 -82.3602 149.095
RightUpLeg  -1.93249 -6.92245 -8.30938
RightLeg  40.7261 1.93721 1.53417
RightFoot  4.00557 -1.24943 9.51514
RightToes  -1.74624e-010 0 -3.6325e-017
Spine  7.92726 4.99902 8.61058
Spine1  5.45441 9.2396 -15.1587
HEad  -21.282 -3.80162 0.967901
LeftShoulder1  8.16731 -12.0599 -45.7529
LeftArm  -5.91905 41.756 -30.464
LeftForeArm  -178.187 -57.4769 -165.353
LeftHand  -0.244104 0.0205437 5.32207
RightShoulder  6.24392 10.2115 39.4179
RightArm  12.4529 -16.2015 31.0797
RightForeArm  146.924 72.3388 146.193
RightHand  -0.0495961 -8.45223 0.132249
LeftUpLeg  -19.1623 12.2787 -11.0713
LeftLeg  24.9113 4.88951 2.82613
LeftFoot  -15.0274 0.0335558 -1.98105
LeftToes  1.28235e-010 -1.10989e-010 2.53219e-011
50
root  56.1805 38.3423 -29.9469 -143.26 -80.5917 147.07
RightUpLeg  -8.23692 -3.24164 -9.98646
RightLeg  54.3127 1.14304 1.23897
RightFoot  10.3725 -1.4326 7.82022
RightToes  -1.74624e-010 0 -3.6325e-017
Spine  9.9005 4.48839 4.97926
Spine1  4.9344 8.11302 -13.6012
HEad  -22.7481 -2.25736 0.779844
LeftShoulder1  8.09587 -11.7695 -46.2306
LeftArm  -7.9292 39.528 -31.6663
LeftForeArm  -179.799 -57.6517 -165.124
LeftHand  -0.244104 0.0205437 5.32207
RightShoulder  6.29608 10.1813 39.8773
RightArm  12.1179 -17.6076 31.8755
RightForeArm  133.65 76.2751 133.057
RightHand  -0.044818 -8.27381 -0.0465083
LeftUpLeg  -17.5908 11.8374 -12.4561
LeftLeg  28.4224 7.0134 4.47127
LeftFoot  -17.2786 0.21794 2.16046
LeftToes  1.28235e-010 -1.10989e-010 2.53219e-011
51
root  54.9723 37.6589 -30.1015 -136.974 -79.9172 139.733
RightUpLeg  -14.5196 -1.51783 -11.8049
RightLeg  65.8557 -0.385795 -1.66769
RightFoot  11.6272 -1.11368 5.83313
RightToes  -1.74624e-010 0 -3.6325e-017
Spine  12.0343 3.38664 0.608578
Spine1  4.61383 6.01218 -11.1507
HEad  -25.0711 -0.836275 0.0827828
LeftShoulder1  8.10786 -11.402 -47.462
LeftArm  -7.17377 34.0762 -29.0461
LeftForeArm  175.758 -59.6653 -163.527
LeftHand  -0.244104 0.0205437 5.32207
RightShoulder  6.40757 9.95573 41.3831
RightArm  8.49631 -19.4816 33.5183
RightForeArm  106.073 79.7251 103.501
RightHand  0.00140188 -7.07706 -2.94037
LeftUpLeg  -16.8857 11.1909 -13.621
LeftLeg  33.636 7.95704 6.01272
LeftFoot  -20.9466 0.401266 3.37251
LeftToes  1.28235e-010 -1.10989e-010 2.53219e-011
52
root  53.6422 37.3052 -30.2882 -130.667 -80.6722 132.675
RightUpLeg  -19.9617 -1.31725 -12.2104
RightLeg  73.179 -1.42789 -6.26819
RightFoot  8.70367 -0.460464 2.90833
RightToes  -1.74624e-010 0 -3.6325e-017
Spine  13.5783 2.03312 -2.59487
Spine1  4.80032 3.55578 -7.90456
HEad  -29.4747 2.41058 0.225629
LeftShoulder1  8.29563 -11.3427 -48.7681
LeftArm  -4.94356 26.9925 -25.3589
LeftForeArm  173.067 -62.8222 -161.103
LeftHand  -0.244104 0.0205437 5.32207
RightShoulder  6.65793 9.82117 43.5759
RightArm  2.33829 -23.7744 34.1307
RightForeArm  80.2145 79.8621 76.3566
RightHand  0.0104483 -5.88887 -7.44601
LeftUpLeg  -14.6437 11.1854 -13.3024
LeftLeg  35.9121 7.12626 5.89625
LeftFoot  -24.3948 0.398694 2.20789
LeftToes  1.28235e-010 -1.10989e-010 2.53219e-011
53
root  52.1048 37.3773 -30.4418 -130.469 -82.2102 132.208
RightUpLeg  -24.3211 -1.23376 -10.7822
RightLeg  75.0708 -2.02643 -9.79969
RightFoot  4.80039 -0.100866 0.986337
RightToes  -1.74624e-010 0 -3.6325e-017
Spine  13.9377 0.749056 -4.24101
Spine1  5.30273 1.19028 -4.12836
HEad  -29.927 3.72106 -0.628916
LeftShoulder1  8.4219 -11.5141 -48.9501
LeftArm  -3.07044 21.7306 -23.8064
LeftForeArm  175.927 -64.4963 -160.041
LeftHand  -0.244104 0.0205437 5.32207
RightShoulder  6.68718 9.64849 44.3807
RightArm  -1.22481 -30.7444 32.6754
RightForeArm  81.7398 79.6944 84.0402
RightHand  0.0152186 -5.73976 -11.4698
LeftUpLeg  -10.645 11.43 -11.3518
LeftLeg  34.2648 6.09323 4.82355
LeftFoot  -25.9129 0.309541 1.19319
LeftToes  1.28235e-010 -1.10989e-010 2.53219e-011
54
root  50.3734 37.8107 -30.5529 -144.574 -83.6577 146.922
RightUpLeg  -27.7926 -0.855617 -7.73146
RightLeg  71.7455 -3.20694 -11.6682
RightFoot  1.87339 -0.156885 1.4898
RightToes  -1.74624e-010 0 -3.6325e-017
Spine  12.9674 -0.506197 -4.56361
Spine1  5.39452 -1.07353 -0.0189759
HEad  -29.2135 6.31083 -3.2691
LeftShoulder1  8.26107 -11.5616 -47.8527
LeftArm  -2.25516 20.2591 -24.84
LeftForeArm  -178.923 -63.4499 -161.378
LeftHand  -0.244104 0.0205437 5.32207
RightShoulder  6.16929 9.18023 42.3253
RightArm  1.71504 -38.0272 29.5922
RightForeArm  100.97 78.3644 113.46
RightHand  -0.00254058 -5.49085 -13.1575
LeftUpLeg  -5.98782 11.4323 -8.32902
LeftLeg  29.6948 6.25709 4.19102
LeftFoot  -25.2773 0.27557 1.03302
LeftToes  1.28235e-010 -1.10989e-010 2.53219e-011
55
root  48.4893 38.5226 -30.6824 -170.657 -83.7688 174.14
RightUpLeg  -29.6336 -0.727696 -3.65634
RightLeg  63.6482 -5.48768 -12.4403
RightFoot  -0.309333 -0.269907 2.75678
RightToes  -1.74624e-010 0 -3.6325e-017
Spine  11.4318 -1.75412 -3.67135
Spine1  4.80824 -2.99014 3.29549
HEad  -28.5087 9.91102 -5.35259
LeftShoulder1  7.91526 -11.3859 -46.3613
LeftArm  -1.51721 21.149 -26.6344
LeftForeArm  -178.043 -61.2112 -163.103
LeftHand  -0.244104 0.0205437 5.32207
RightShoulder  5.38577 8.60709 38.4106
RightArm  7.68883 -43.7393 26.5575
RightForeArm  119.522 75.044 134.634
RightHand  0.0448462 -6.22241 -10.8343
LeftUpLeg  -1.23354 12.2056 -4.64451
LeftLeg  23.8285 6.22263 3.38721
LeftFoot  -22.2123 0.106361 -0.366027
LeftToes  1.28235e-010 -1.10989e-010 2.53219e-011
56
root  46.4747 39.3351 -30.8655 171.16 -82.3432 -166.738
RightUpLeg  -29.139 -1.25924 0.28327
RightLeg  51.6987 -7.84448 -10.9458
RightFoot  -2.4374 -0.252974 3.01429
RightToes  -1.74624e-010 0 -3.6325e-017
Spine  9.86827 -2.64995 -1.68929
Spine1  4.10519 -3.94416 4.42068
HEad  -26.4998 12.7279 -6.39235
LeftShoulder1  7.60541 -11.1646 -45.1811
LeftArm  0.30371 21.5478 -27.5664
LeftForeArm  179.442 -59.6029 -163.92
LeftHand  -0.244104 0.0205437 5.32207
RightShoulder  4.92811 8.48577 35.1546
RightArm  10.539 -48.5136 25.2768
RightForeArm  135.382 72.1898 144.72
RightHand  0.114408 -8.11342 -6.30827
LeftUpLeg  3.50634 14.5799 -0.77143
LeftLeg  18.3646 4.61403 1.74214
LeftFoot  -16.2547 -0.0541229 -3.91696
LeftToes  1.28235e-010 -1.10989e-010 2.53219e-011
57
root  44.4043 39.9886 -31.0753 166.113 -80.9089 -161.319
RightUpLeg  -26.7831 -2.68815 3.15478
RightLeg  38.1495 -7.96561 -6.9899
RightFoot  -4.5421 -0.2295 3.38502
RightToes  -1.74624e-010 0 -3.6325e-017
Spine  8.58815 -2.95886 0.716637
Spine1  3.8647 -3.88199 3.61675
HEad  -24.0785 13.8766 -6.12255
LeftShoulder1  7.44582 -11.0797 -44.4604
LeftArm  2.66523 20.1568 -27.6776
LeftForeArm  178.973 -58.7189 -164.41
LeftHand  -0.244104 0.0205437 5.32207
RightShoulder  4.96247 8.93713 33.9384
RightArm  8.59531 -52.6748 26.1538
RightForeArm  143.794 70.2549 149.443
RightHand  0.0937247 -9.12067 -4.14278
LeftUpLeg  7.03582 16.3498 2.20359
LeftLeg  16.0873 3.36002 0.407933
LeftFoot  -8.12924 0.240736 -7.18758
LeftToes  1.28235e-010 -1.10989e-010 2.53219e-011
58
root  42.4254 40.265 -31.291 166.872 -80.3714 -162.166
RightUpLeg  -23.9177 -5.35136 4.9432
RightLeg  26.5657 -5.57923 -3.24813
RightFoot  -6.67257 -0.244239 4.91519
RightToes  -1.74624e-010 0 -3.6325e-017
Spine  7.90159 -2.90466 2.42341
Spine1  4.0777 -3.46892 2.58539
HEad  -22.3142 13.4972 -5.85708
LeftShoulder1  7.46053 -11.2234 -44.0974
LeftArm  4.13574 17.7508 -27.7566
LeftForeArm  -179.16 -58.15 -164.897
LeftHand  -0.244104 0.0205437 5.32207
RightShoulder  5.06537 9.30209 33.6108
RightArm  3.82809 -54.6871 29.9017
RightForeArm  140.236 69.6716 149.844
RightHand  0.147963 -9.18413 -5.85788
LeftUpLeg  7.20878 17.3227 3.09031
LeftLeg  20.0408 1.67154 1.09726
LeftFoot  -0.855097 0.715032 -7.83903
LeftToes  1.28235e-010 -1.10989e-010 2.53219e-011
59
root  40.5975 40.0655 -31.5136 166.982 -80.6772 -162.93
RightUpLeg  -21.5058 -8.80824 6.35794
RightLeg  20.4578 -3.40177 -1.51439
RightFoot  -8.76356 -0.179499 5.15386
RightToes  -1.74624e-010 0 -3.6325e-017
Spine  8.2081 -2.80406 3.70359
Spine1  4.29689 -3.05875 2.09418
HEad  -20.7801 12.1052 -6.59215
LeftShoulder1  7.55819 -11.5516 -43.6832
LeftArm  4.52573 15.4244 -28.2985
LeftForeArm  -178.543 -58.1321 -164.958
LeftHand  -0.244104 0.0205437 5.32207
RightShoulder  4.79603 9.05536 32.2331
RightArm  -1.74734 -54.0793 36.6772
RightForeArm  133.326 70.7783 147.044
RightHand  0.201209 -8.78454 -8.03258
LeftUpLeg  4.27628 12.4755 2.39208
LeftLeg  30.1665 3.40114 2.48106
LeftFoot  2.69017 0.857073 -7.07986
LeftToes  1.28235e-010 -1.10989e-010 2.53219e-011
60
root  38.8398 39.4808 -31.7301 163.02 -80.9459 -160.309
RightUpLeg  -19.9257 -10.7668 7.60325
RightLeg  21.4465 -3.74964 -1.6074
RightFoot  -10.4617 -0.0858485 1.82253
RightToes  -1.74624e-010 0 -3.6325e-017
Spine  9.55565 -2.56661 6.01453
Spine1  4.20421 -2.2236 1.28197
HEad  -19.003 10.2061 -7.74542
LeftShoulder1  7.51404 -11.72 -42.9014
LeftArm  4.6082 13.1051 -29.7054
LeftForeArm  -179.138 -58.8624 -164.484
LeftHand  -0.244104 0.0205437 5.32207
RightShoulder  4.38353 8.54088 30.4485
RightArm  -5.88866 -52.0574 42.5605
RightForeArm  133 71.8961 144.917
RightHand  0.184334 -8.85425 -7.45099
LeftUpLeg  0.727927 8.11207 2.52001
LeftLeg  42.8719 3.43451 3.78021
LeftFoot  2.66113 0.795509 -6.60556
LeftToes  1.28235e-010 -1.10989e-010 2.53219e-011
61
root  37.0387 38.7377 -31.9206 158.064 -80.4032 -156.838
RightUpLeg  -19.094 -10.3005 8.61201
RightLeg  27.4646 -5.16015 -3.19257
RightFoot  -12.1517 -0.108336 -3.1154
RightToes  -1.74624e-010 0 -3.6325e-017
Spine  11.195 -2.10445 9.34674
Spine1  3.93708 -0.839194 -0.319537
HEad  -18.2538 8.62955 -8.45095
LeftShoulder1  7.28348 -11.3627 -42.5703
LeftArm  4.24006 10.4561 -31.6877
LeftForeArm  -178.065 -60.0774 -163.835
LeftHand  -0.244104 0.0205437 5.32207
RightShoulder  4.44473 8.44645 31.2368
RightArm  -5.44136 -48.552 41.3074
RightForeArm  137.297 71.3011 146.672
RightHand  0.153838 -9.29098 -5.78611
LeftUpLeg  -2.80562 5.10682 3.34766
LeftLeg  54.6316 2.97315 5.00757
LeftFoot  0.853197 0.639973 -6.02709
LeftToes  1.28235e-010 -1.10989e-010 2.53219e-011
